<svg width="21" height="17" viewBox="0 0 21 17" fill="none" xmlns="http://www.w3.org/2000/svg">
<path d="M1.75 0.625H19.25C20.1688 0.625 21 1.45625 21 2.375V14.625C21 15.5437 20.1688 16.375 19.25 16.375H1.75C0.83125 16.375 0 15.5437 0 14.625V2.375C0 1.45625 0.83125 0.625 1.75 0.625ZM12.25 3.25V4.125H19.25V3.25H12.25ZM12.25 5V5.875H19.25V5H12.25ZM12.25 6.75V7.625H18.375V6.75H12.25ZM7 10.1712C5.25 10.1712 1.75 11.125 1.75 12.875V13.75H12.25V12.875C12.25 11.125 8.75 10.1712 7 10.1712ZM7 3.25C6.30381 3.25 5.63613 3.52656 5.14384 4.01884C4.65156 4.51113 4.375 5.17881 4.375 5.875C4.375 6.57119 4.65156 7.23887 5.14384 7.73116C5.63613 8.22344 6.30381 8.5 7 8.5C7.69619 8.5 8.36387 8.22344 8.85616 7.73116C9.34844 7.23887 9.625 6.57119 9.625 5.875C9.625 5.17881 9.34844 4.51113 8.85616 4.01884C8.36387 3.52656 7.69619 3.25 7 3.25Z" fill="white"/>
</svg>
