<svg width="19" height="16" viewBox="0 0 19 16" fill="none" xmlns="http://www.w3.org/2000/svg">
<path d="M4.25 9.8125V8.5H5.5625V9.8125H4.25ZM0.3125 3.25C0.3125 2.55381 0.589062 1.88613 1.08134 1.39384C1.57363 0.901562 2.24131 0.625 2.9375 0.625H12.125C12.8212 0.625 13.4889 0.901562 13.9812 1.39384C14.4734 1.88613 14.75 2.55381 14.75 3.25V11.7812C14.75 11.9553 14.8191 12.1222 14.9422 12.2453C15.0653 12.3684 15.2322 12.4375 15.4062 12.4375C15.5803 12.4375 15.7472 12.3684 15.8703 12.2453C15.9934 12.1222 16.0625 11.9553 16.0625 11.7812V3.25C16.7587 3.25 17.4264 3.52656 17.9187 4.01884C18.4109 4.51113 18.6875 5.17881 18.6875 5.875V11.7812C18.6875 12.6515 18.3418 13.4861 17.7264 14.1014C17.1111 14.7168 16.2765 15.0625 15.4062 15.0625H3.59375C2.72351 15.0625 1.88891 14.7168 1.27356 14.1014C0.658202 13.4861 0.3125 12.6515 0.3125 11.7812V3.25ZM3.59375 4.5625C3.4197 4.5625 3.25278 4.63164 3.12971 4.75471C3.00664 4.87778 2.9375 5.0447 2.9375 5.21875C2.9375 5.3928 3.00664 5.55972 3.12971 5.68279C3.25278 5.80586 3.4197 5.875 3.59375 5.875H11.4688C11.6428 5.875 11.8097 5.80586 11.9328 5.68279C12.0559 5.55972 12.125 5.3928 12.125 5.21875C12.125 5.0447 12.0559 4.87778 11.9328 4.75471C11.8097 4.63164 11.6428 4.5625 11.4688 4.5625H3.59375ZM3.59375 7.1875C3.4197 7.1875 3.25278 7.25664 3.12971 7.37971C3.00664 7.50278 2.9375 7.6697 2.9375 7.84375V10.4688C2.9375 10.6428 3.00664 10.8097 3.12971 10.9328C3.25278 11.0559 3.4197 11.125 3.59375 11.125H6.21875C6.3928 11.125 6.55972 11.0559 6.68279 10.9328C6.80586 10.8097 6.875 10.6428 6.875 10.4688V7.84375C6.875 7.6697 6.80586 7.50278 6.68279 7.37971C6.55972 7.25664 6.3928 7.1875 6.21875 7.1875H3.59375ZM8.84375 7.1875C8.6697 7.1875 8.50278 7.25664 8.37971 7.37971C8.25664 7.50278 8.1875 7.6697 8.1875 7.84375C8.1875 8.0178 8.25664 8.18472 8.37971 8.30779C8.50278 8.43086 8.6697 8.5 8.84375 8.5H11.4688C11.6428 8.5 11.8097 8.43086 11.9328 8.30779C12.0559 8.18472 12.125 8.0178 12.125 7.84375C12.125 7.6697 12.0559 7.50278 11.9328 7.37971C11.8097 7.25664 11.6428 7.1875 11.4688 7.1875H8.84375ZM8.84375 9.8125C8.6697 9.8125 8.50278 9.88164 8.37971 10.0047C8.25664 10.1278 8.1875 10.2947 8.1875 10.4688C8.1875 10.6428 8.25664 10.8097 8.37971 10.9328C8.50278 11.0559 8.6697 11.125 8.84375 11.125H11.4688C11.6428 11.125 11.8097 11.0559 11.9328 10.9328C12.0559 10.8097 12.125 10.6428 12.125 10.4688C12.125 10.2947 12.0559 10.1278 11.9328 10.0047C11.8097 9.88164 11.6428 9.8125 11.4688 9.8125H8.84375Z" fill="white"/>
</svg>
