<svg width="24" height="24" viewBox="0 0 24 24" fill="none" xmlns="http://www.w3.org/2000/svg">
<path d="M12 23C12.7293 23 13.4288 22.7102 13.9445 22.1945C14.4603 21.6788 14.75 20.9793 14.75 20.25H9.25C9.25 20.9793 9.53973 21.6788 10.0555 22.1945C10.5712 22.7102 11.2707 23 12 23ZM13.3681 2.51111C13.3873 2.31992 13.3662 2.12683 13.3062 1.9443C13.2462 1.76176 13.1486 1.59383 13.0197 1.45134C12.8908 1.30884 12.7334 1.19495 12.5578 1.117C12.3822 1.03905 12.1921 0.998779 12 0.998779C11.8079 0.998779 11.6178 1.03905 11.4422 1.117C11.2666 1.19495 11.1092 1.30884 10.9803 1.45134C10.8514 1.59383 10.7538 1.76176 10.6938 1.9443C10.6338 2.12683 10.6127 2.31992 10.6319 2.51111C9.07774 2.82722 7.6806 3.67073 6.67705 4.8988C5.6735 6.12686 5.1252 7.66402 5.125 9.24998C5.125 10.7597 4.4375 17.5 2.375 18.875H21.625C19.5625 17.5 18.875 10.7597 18.875 9.24998C18.875 5.92248 16.51 3.14498 13.3681 2.51111V2.51111Z" fill="white"/>
</svg>
