<svg width="16" height="16" viewBox="0 0 16 16" fill="none" xmlns="http://www.w3.org/2000/svg">
<path d="M8 0C3.65117 0 0.125 3.52617 0.125 7.875C0.125 12.2238 3.65117 15.75 8 15.75C12.3488 15.75 15.875 12.2238 15.875 7.875C15.875 3.52617 12.3488 0 8 0ZM11.1025 10.2955L10.5998 10.9811C10.5889 10.996 10.5751 11.0086 10.5593 11.0182C10.5434 11.0278 10.5259 11.0341 10.5076 11.0369C10.4893 11.0397 10.4706 11.0388 10.4527 11.0344C10.4347 11.0299 10.4178 11.0219 10.4029 11.0109L7.49551 8.89102C7.4774 8.87801 7.46267 8.86084 7.45258 8.84096C7.44248 8.82107 7.43731 8.79906 7.4375 8.77676V3.9375C7.4375 3.86016 7.50078 3.79688 7.57812 3.79688H8.42363C8.50098 3.79688 8.56426 3.86016 8.56426 3.9375V8.28809L11.0709 10.1004C11.1342 10.1443 11.1482 10.2322 11.1025 10.2955Z" fill="#737373"/>
</svg>
