<svg width="24" height="24" viewBox="0 0 24 24" fill="none" xmlns="http://www.w3.org/2000/svg">
<rect width="24" height="24" rx="12" fill="#E5DCFF"/>
<g clip-path="url(#clip0_1344_47)">
<path d="M15.4998 14.543L12.065 17.9778L8.63017 14.543C6.05585 14.6546 4 16.7608 4 19.3604V19.706C4 20.6601 4.7741 21.4342 5.72821 21.4342H18.4018C19.3559 21.4342 20.13 20.6601 20.13 19.706V19.3604C20.13 16.7608 18.0741 14.6546 15.4998 14.543ZM4.48966 5.87308L4.72009 5.92709V8.02975C4.46806 8.18097 4.28804 8.4438 4.28804 8.76064C4.28804 9.06308 4.45366 9.31511 4.68769 9.46993L4.12602 11.713C4.06481 11.9614 4.20162 12.2171 4.39965 12.2171H5.90464C6.10266 12.2171 6.23948 11.9614 6.17827 11.713L5.6166 9.46993C5.85063 9.31511 6.01625 9.06308 6.01625 8.76064C6.01625 8.4438 5.83623 8.18097 5.5842 8.02975V6.13591L7.96049 6.70839C7.65085 7.32766 7.45643 8.01895 7.45643 8.76064C7.45643 11.3062 9.51948 13.3692 12.065 13.3692C14.6105 13.3692 16.6736 11.3062 16.6736 8.76064C16.6736 8.01895 16.4827 7.32766 16.1695 6.70839L19.6367 5.87308C20.292 5.71466 20.292 4.89736 19.6367 4.73894L12.7815 3.08273C12.3134 2.97112 11.8202 2.97112 11.3521 3.08273L4.48966 4.73534C3.83798 4.89376 3.83798 5.71466 4.48966 5.87308Z" fill="#270C73"/>
</g>
<defs>
<clipPath id="clip0_1344_47">
<rect width="16.13" height="18.4343" fill="white" transform="translate(4 3)"/>
</clipPath>
</defs>
</svg>
