<svg width="19" height="19" viewBox="0 0 19 19" fill="none" xmlns="http://www.w3.org/2000/svg">
<path d="M17.375 0.75H4.25C3.78587 0.75 3.34075 0.934374 3.01256 1.26256C2.68437 1.59075 2.5 2.03587 2.5 2.5V5.125H0.75V6.875H2.5V8.625H0.75V10.375H2.5V12.125H0.75V13.875H2.5V16.5C2.5 16.9641 2.68437 17.4092 3.01256 17.7374C3.34075 18.0656 3.78587 18.25 4.25 18.25H17.375C17.6071 18.25 17.8296 18.1578 17.9937 17.9937C18.1578 17.8296 18.25 17.6071 18.25 17.375V1.625C18.25 1.39294 18.1578 1.17038 17.9937 1.00628C17.8296 0.842187 17.6071 0.75 17.375 0.75ZM10.375 3.37413C11.817 3.37413 13 4.55625 13 5.99913C12.9975 6.69462 12.7201 7.36092 12.2284 7.85279C11.7367 8.34466 11.0705 8.62223 10.375 8.625C8.93388 8.625 7.75 7.44112 7.75 5.99913C7.75 4.55625 8.93388 3.37413 10.375 3.37413ZM15.625 14.75H5.125V14.0938C5.125 12.1521 7.49187 10.1562 10.375 10.1562C13.2581 10.1562 15.625 12.1521 15.625 14.0938V14.75Z" fill="white"/>
</svg>
