<svg width="21" height="21" viewBox="0 0 21 21" fill="none" xmlns="http://www.w3.org/2000/svg">
<g clip-path="url(#clip0_1345_48)">
<path d="M0 10.4983C0.000591394 12.9987 0.892994 15.4169 2.51681 17.3183C4.14063 19.2196 6.38937 20.4794 8.85885 20.8713V13.5328H6.195V10.4983H8.862V8.18834C8.80311 7.64768 8.86399 7.10069 9.04031 6.58621C9.21663 6.07174 9.50408 5.60239 9.88222 5.21152C10.2604 4.82064 10.7199 4.51783 11.2283 4.32457C11.7367 4.13132 12.2813 4.05237 12.8236 4.09334C13.6111 4.10594 14.3986 4.17629 15.1756 4.30334V6.88529H13.8484C13.6229 6.85574 13.3936 6.87727 13.1774 6.94827C12.9613 7.01927 12.7639 7.13793 12.5998 7.29549C12.4357 7.45304 12.309 7.64547 12.2293 7.85853C12.1496 8.07159 12.1187 8.29985 12.139 8.52644V10.4983H15.0486L14.5834 13.5339H12.139V20.8713C14.1211 20.5581 15.9718 19.6835 17.4722 18.351C18.9725 17.0186 20.0597 15.2842 20.6049 13.3531C21.1502 11.422 21.1307 9.3751 20.5487 7.45474C19.9667 5.53439 18.8467 3.821 17.3212 2.51744C15.7957 1.21388 13.9286 0.374732 11.941 0.0993539C9.95337 -0.176025 7.92847 0.123896 6.10601 0.963608C4.28356 1.80332 2.73989 3.14765 1.65774 4.83745C0.575604 6.52725 0.000318539 8.49174 0 10.4983V10.4983Z" fill="white"/>
</g>
<defs>
<clipPath id="clip0_1345_48">
<rect width="21" height="21" fill="white"/>
</clipPath>
</defs>
</svg>
