<svg width="21" height="17" viewBox="0 0 21 17" fill="none" xmlns="http://www.w3.org/2000/svg">
<path d="M10.2219 4.40528L3.50006 9.94148V15.9166C3.50006 16.0713 3.56152 16.2197 3.67091 16.3291C3.78031 16.4385 3.92868 16.5 4.08339 16.5L8.16891 16.4894C8.32312 16.4886 8.47074 16.4268 8.57951 16.3175C8.68827 16.2082 8.74933 16.0603 8.74933 15.9061V12.4166C8.74933 12.2619 8.81079 12.1136 8.92018 12.0042C9.02958 11.8948 9.17795 11.8333 9.33266 11.8333H11.666C11.8207 11.8333 11.9691 11.8948 12.0785 12.0042C12.1879 12.1136 12.2493 12.2619 12.2493 12.4166V15.9035C12.2491 15.9803 12.264 16.0563 12.2932 16.1273C12.3224 16.1983 12.3653 16.2628 12.4195 16.3172C12.4737 16.3715 12.5381 16.4147 12.609 16.4441C12.6799 16.4735 12.7559 16.4887 12.8327 16.4887L16.9167 16.5C17.0714 16.5 17.2198 16.4385 17.3292 16.3291C17.4386 16.2197 17.5001 16.0713 17.5001 15.9166V9.93747L10.7797 4.40528C10.7007 4.3416 10.6023 4.30687 10.5008 4.30687C10.3993 4.30687 10.3009 4.3416 10.2219 4.40528ZM20.8396 8.16814L17.7917 5.6558V0.605957C17.7917 0.489925 17.7456 0.378645 17.6636 0.296598C17.5815 0.214551 17.4703 0.168457 17.3542 0.168457H15.3126C15.1965 0.168457 15.0852 0.214551 15.0032 0.296598C14.9212 0.378645 14.8751 0.489925 14.8751 0.605957V3.2532L11.6109 0.567676C11.2977 0.309908 10.9046 0.168972 10.499 0.168972C10.0933 0.168972 9.70023 0.309908 9.38698 0.567676L0.158287 8.16814C0.113986 8.20476 0.0773335 8.24975 0.0504243 8.30053C0.0235151 8.35132 0.00687658 8.40691 0.00145938 8.46413C-0.00395782 8.52135 0.00195248 8.57908 0.0188526 8.63401C0.0357527 8.68894 0.0633114 8.74001 0.099954 8.78429L1.02964 9.9145C1.06618 9.95893 1.11113 9.99572 1.16191 10.0228C1.21269 10.0498 1.26831 10.0666 1.32557 10.0721C1.38284 10.0776 1.44063 10.0718 1.49564 10.0549C1.55065 10.0381 1.60179 10.0106 1.64615 9.97393L10.2219 2.91049C10.3009 2.8468 10.3993 2.81208 10.5008 2.81208C10.6023 2.81208 10.7007 2.8468 10.7797 2.91049L19.3558 9.97393C19.4001 10.0106 19.4511 10.0381 19.5061 10.055C19.561 10.0719 19.6187 10.0778 19.6759 10.0724C19.7332 10.067 19.7888 10.0504 19.8395 10.0235C19.8903 9.99655 19.9353 9.95989 19.9719 9.91559L20.9016 8.78538C20.9382 8.74085 20.9657 8.68952 20.9824 8.63434C20.9991 8.57917 21.0047 8.52124 20.9989 8.46388C20.9932 8.40652 20.9761 8.35087 20.9488 8.30011C20.9215 8.24936 20.8844 8.20451 20.8396 8.16814Z" fill="white"/>
</svg>
