<svg width="194" height="50" viewBox="0 0 194 50" fill="none" xmlns="http://www.w3.org/2000/svg">
<path fill-rule="evenodd" clip-rule="evenodd" d="M29.6494 15.5568V21.6511L34.6494 26.0629L29.6494 30.4746V39.732C35.9376 36.7446 29.6494 43.4376 29.6494 43.4376C29.6494 47.1299 37.8429 36.5772 37.8429 36.5772C37.8429 36.5772 36.4661 49.5526 19.8575 49.5526C4.24416 49.5526 0.579783 34.9894 0.579783 34.9894C0.579783 34.9894 -1.7644 28.0152 2.97447 21.5077C4.02884 20.0595 5.30409 18.8202 6.64974 17.7685C6.43605 17.7282 1.49635 16.7298 1.14054 10.3615C1.14054 10.3615 0.693849 3.36044 8.37799 2.23719C8.37799 2.23719 13.0575 1.51919 21.3325 4.70994C29.6076 7.90095 31.2253 4.70994 31.2253 4.70994C31.2253 4.70994 32.2774 1.22425 29.104 0.984814C29.104 0.984814 27.1362 0.739689 25.7043 0.984814C25.7043 0.984814 25.9303 0 29.5098 0C33.0896 0 36.1326 2.40507 37.1804 5.95051C38.4635 10.4155 34.3475 13.7422 34.3475 13.7422C34.3475 13.7422 32.9142 15.2636 29.6494 15.5568ZM29.0244 21.6511L24.0244 26.0629L29.0244 30.4746V40.0107C26.9791 40.8643 24.5305 41.3241 21.6215 41.0739C9.0868 39.9956 8.95499 28.6669 8.95499 28.6669C8.95499 28.6669 7.47461 18.2479 16.9117 12.7087C16.9117 12.7087 11.3548 14.0927 6.65418 17.765C4.2319 13.5009 6.89612 11.4477 6.89612 11.4477C9.09111 9.31264 16.903 12.7043 16.903 12.7043C16.903 12.7043 23.3024 15.3579 27.8475 15.5877C28.2611 15.6086 28.6532 15.6104 29.0244 15.5965V21.6511Z" fill="url(#paint0_linear_748_2)"/>
<path fill-rule="evenodd" clip-rule="evenodd" d="M13.3894 19.5026V19.5L15.0869 18.7113L22.0924 15.4458L22.0964 15.4544L22.8055 15.125V35.125L13.3894 39.1875V20.1921L8.53744 22.4537L8.27344 21.8872L13.3894 19.5026Z" fill="url(#paint1_linear_748_2)"/>
<path d="M39.125 27.1152C39.125 25.4258 39.4082 23.917 39.9746 22.5888C40.541 21.2607 41.415 20.2109 42.5967 19.4395C43.788 18.6582 45.2724 18.2676 47.0498 18.2676C47.9775 18.2676 48.9052 18.3798 49.833 18.6045C50.7607 18.8193 51.5468 19.1807 52.1913 19.6885C52.787 20.167 53.2167 20.8017 53.4804 21.5928C53.7538 22.374 53.8906 23.2432 53.8906 24.2002C53.8906 24.835 53.8368 25.4844 53.7294 26.1484C53.6123 26.3437 53.3828 26.6025 53.0409 26.9248C52.6991 27.2373 52.2988 27.5449 51.8398 27.8477C51.3808 28.1504 50.9365 28.3848 50.5068 28.5508C50.0966 28.5801 49.6718 28.5947 49.2323 28.5947C48.4609 28.5947 47.6797 28.5605 46.8886 28.4922C46.0976 28.4239 45.4042 28.3457 44.8085 28.2578C44.8867 29.0879 45.1406 29.8105 45.5703 30.4258C46 31.0411 46.6835 31.3486 47.621 31.3486C47.7089 31.3486 47.8505 31.3389 48.0458 31.3194C48.6415 31.2607 49.3349 31.1045 50.1259 30.8506C50.9267 30.5869 51.7226 30.2842 52.5136 29.9424C52.8847 30.3135 53.1581 30.6846 53.3339 31.0557C53.5097 31.4267 53.6318 31.959 53.7001 32.6524C53.3974 33.0039 52.9042 33.4336 52.2206 33.9414C51.5468 34.4492 50.7216 34.9082 49.7451 35.3184C48.7685 35.7187 47.748 35.919 46.6835 35.919C45.082 35.919 43.7099 35.5332 42.5674 34.7617C41.4346 33.9805 40.5752 32.9258 39.9892 31.5977C39.4131 30.2598 39.125 28.7656 39.125 27.1152ZM48.5585 23.7461C48.4218 23.5996 48.1923 23.4873 47.8701 23.4092C47.5478 23.3213 47.2109 23.2773 46.8593 23.2773C46.5761 23.2773 46.288 23.3017 45.9951 23.3506C45.7119 23.3994 45.541 23.4531 45.4824 23.5117C45.1504 24.166 44.9404 24.9082 44.8525 25.7383L48.7636 25.3574L48.5585 23.7461ZM56.6737 26.1631C56.6737 21.5928 56.7616 18.458 56.9374 16.7588L55.2821 16.4658C55.0478 15.5673 54.9306 14.6006 54.9306 13.5654C55.0771 13.3798 55.3505 13.1504 55.7509 12.877C56.1513 12.6035 56.6151 12.3642 57.1425 12.1591C57.6796 11.9541 58.2118 11.8515 58.7392 11.8515C60.0477 11.8515 61.0634 12.1348 61.786 12.7011C62.5187 13.2676 62.8843 14.2343 62.8843 15.6015C62.8843 16.2851 62.8356 17.335 62.7381 18.751C62.6406 20.1572 62.4598 21.8662 62.1962 23.8779C61.9325 25.8897 61.581 27.9892 61.1415 30.1767L61.3905 30.3232C62.162 29.2588 62.9043 28.0869 63.6168 26.8076C64.33 25.5185 64.8962 24.3223 65.3162 23.2187L64.0562 22.9111C63.9393 22.2471 63.8806 21.4609 63.8806 20.5527V20.0254C64.2518 19.5567 64.7593 19.1465 65.4043 18.7949C66.0587 18.4433 66.8687 18.2676 67.8356 18.2676C68.5293 18.2676 69.1299 18.3994 69.6374 18.6631C70.1456 18.917 70.5362 19.2734 70.8093 19.7324C71.0831 20.1914 71.2193 20.7187 71.2193 21.3145C71.2193 21.7637 71.1512 22.1885 71.0143 22.5888C70.8781 22.9795 70.6724 23.3945 70.3993 23.834C69.6962 24.9473 68.4706 26.5293 66.7225 28.5801C67.3087 29.4004 67.88 30.1133 68.4362 30.7187C68.6512 30.6114 68.8512 30.4697 69.0368 30.294C69.2324 30.1182 69.4812 29.8642 69.7843 29.5322L70.1062 29.1953L71.9081 30.5576C71.8399 32.2959 71.4637 33.6241 70.7799 34.542C70.1062 35.4502 69.2124 35.9043 68.0993 35.9043C66.8787 35.9043 65.9606 35.5332 65.3456 34.7911C64.7306 34.0489 64.2812 32.9991 63.9981 31.6416C62.9237 32.8037 61.9765 33.7803 61.1562 34.5713C60.3456 35.3526 59.8134 35.8017 59.5595 35.919C59.0224 35.919 58.5097 35.8555 58.0214 35.7286C57.5331 35.6016 57.1718 35.4014 56.9374 35.1279C56.83 33.7412 56.7567 32.3692 56.7177 31.0117C56.6884 29.6445 56.6737 28.0284 56.6737 26.1631ZM74.8374 30.5284C74.8374 28.9365 74.8574 27.7354 74.8962 26.9248C74.9356 26.1045 75.038 24.9034 75.2037 23.3213L73.5049 23.1015C73.2999 22.4668 73.1631 21.9004 73.0943 21.4023C73.0362 20.9043 73.0068 20.2598 73.0068 19.4687C73.1631 19.332 73.4218 19.1709 73.7831 18.9853C74.1543 18.79 74.5937 18.624 75.1012 18.4873C75.6093 18.3408 76.1218 18.2676 76.6393 18.2676C77.8212 18.2676 78.6562 18.5215 79.1443 19.0293C79.6424 19.5371 79.8912 20.2988 79.8912 21.3145C79.8912 21.8808 79.8087 22.6475 79.6424 23.6142C79.3687 25.167 79.2324 25.9824 79.2324 26.0605C79.2324 26.1094 79.2662 26.1582 79.3349 26.207C79.403 26.2461 79.4762 26.2656 79.5543 26.2656C79.6424 26.2656 79.7012 26.2315 79.7305 26.1631C80.1212 24.6104 80.5118 23.3115 80.9024 22.2666C81.293 21.2217 81.8837 20.294 82.6749 19.4834C83.4655 18.6728 84.4911 18.2676 85.7505 18.2676C87.313 18.2676 88.4361 18.7461 89.1199 19.7031C89.8036 20.6504 90.1455 21.8467 90.1455 23.292C90.1455 24.581 89.9936 25.8262 89.6911 27.0274C89.3886 28.2187 89.0124 29.4639 88.563 30.7627C88.583 30.7139 88.5142 30.9043 88.358 31.334L88.3874 31.3633L90.5261 30.4844C91.288 31.1387 91.7324 32.0078 91.8592 33.0918C91.8592 33.1602 91.6392 33.4385 91.1999 33.9267C90.7705 34.4151 90.1992 34.8692 89.4861 35.2891C88.773 35.709 87.953 35.919 87.0249 35.919C86.0974 35.919 85.3405 35.6699 84.7549 35.1719C84.1686 34.6739 83.8755 33.8242 83.8755 32.6231C83.8755 31.6661 83.9149 30.3867 83.993 28.7852C84.0711 27.1836 84.1493 25.8945 84.2274 24.918C83.9736 24.6445 83.6611 24.498 83.2899 24.4785C82.948 24.918 82.4449 25.7969 81.7812 27.1152C81.1168 28.4336 80.648 29.4199 80.3749 30.0742C80.3555 30.2109 80.3455 30.3428 80.3455 30.4697C80.3455 30.958 80.4187 31.6172 80.5655 32.4473C80.7118 33.2676 80.8924 34.0342 81.1074 34.7471C80.9312 35.0791 80.5699 35.3574 80.023 35.5821C79.4762 35.8067 78.8024 35.919 78.0018 35.919C77.2793 35.919 76.698 35.8604 76.2587 35.7432C75.8287 35.626 75.5262 35.5039 75.3505 35.377C75.1749 35.2402 75.0868 35.1572 75.0868 35.1279C75.0768 35.0401 75.0524 34.8106 75.0137 34.4395C74.9743 34.0586 74.9356 33.5312 74.8962 32.8574C74.8574 32.1739 74.8374 31.3975 74.8374 30.5284ZM92.9724 26.9687C92.9724 25.2012 93.2555 23.668 93.8217 22.3692C94.3886 21.0703 95.2574 20.0645 96.4292 19.3515C97.6011 18.6289 99.0711 18.2676 100.839 18.2676C102.792 18.2676 104.325 18.6338 105.438 19.3662C106.552 20.0888 107.328 21.0947 107.767 22.3838C108.217 23.6729 108.441 25.25 108.441 27.1152C108.441 28.8047 108.144 30.3135 107.547 31.6416C106.962 32.96 106.073 34.0049 104.882 34.7764C103.7 35.5381 102.25 35.919 100.531 35.919C97.8748 35.919 95.9511 35.1036 94.7592 33.4727C93.568 31.8321 92.9724 29.664 92.9724 26.9687ZM101.132 31.627C101.63 31.627 101.932 31.5879 102.04 31.5098C102.264 31.1192 102.435 30.5674 102.552 29.8545C102.67 29.1416 102.728 28.3701 102.728 27.54C102.728 26.7784 102.679 26.0654 102.582 25.4014C102.484 24.7275 102.347 24.2002 102.172 23.8194C102.064 23.6924 101.849 23.5996 101.527 23.541C101.205 23.4727 100.853 23.4385 100.472 23.4385C99.9742 23.4385 99.6323 23.4922 99.4467 23.5996C98.9586 24.4395 98.7148 25.6065 98.7148 27.1006C98.7148 27.8037 98.7686 28.5215 98.8755 29.2539C98.983 29.9864 99.1198 30.6504 99.2861 31.2461C99.403 31.3731 99.6423 31.4707 100.004 31.5391C100.365 31.5977 100.741 31.627 101.132 31.627ZM110.038 23.8047C109.745 22.9648 109.599 21.9736 109.599 20.831C109.862 20.0986 110.297 19.4834 110.902 18.9853C111.507 18.4873 112.269 18.2383 113.187 18.2383C113.773 18.2383 114.281 18.3603 114.71 18.6045C115.14 18.8388 115.531 19.2002 115.882 19.6885C116.42 20.4502 116.835 21.5048 117.128 22.8525C117.382 24.0342 117.592 25.416 117.757 26.998C117.934 28.5703 118.021 30.0547 118.021 31.4512L118.592 31.4659C118.993 30.1182 119.315 28.834 119.559 27.6133C119.804 26.3926 119.984 24.9375 120.101 23.248L118.373 22.9111C118.226 22.3838 118.124 21.9297 118.065 21.5488C118.007 21.1582 117.977 20.7432 117.977 20.3037C117.977 20.0498 118.172 19.7617 118.563 19.4395C118.954 19.1074 119.457 18.8291 120.072 18.6045C120.697 18.3798 121.342 18.2676 122.005 18.2676C124.515 18.2676 125.77 19.5322 125.77 22.0615C125.77 22.8721 125.594 23.7607 125.243 24.7275C125.809 26.6807 126.229 28.9267 126.503 31.4659L126.766 31.4805C127.167 30.543 127.528 29.2734 127.85 27.6719C128.182 26.0605 128.348 24.5713 128.348 23.2041L126.913 22.9258C126.766 22.3984 126.663 21.9443 126.605 21.5635C126.547 21.1728 126.517 20.7578 126.517 20.3183C126.517 20.0645 126.688 19.7763 127.03 19.4541C127.382 19.1221 127.845 18.8437 128.422 18.6192C128.998 18.3848 129.608 18.2676 130.253 18.2676C132.821 18.2676 134.105 19.6103 134.105 22.2959C134.105 23.9463 133.797 25.6602 133.182 27.4375C132.567 29.2149 131.82 30.8359 130.941 32.3008C130.062 33.7656 129.232 34.9034 128.451 35.7139C127.962 35.8506 127.435 35.919 126.868 35.919C126.195 35.919 125.54 35.8262 124.906 35.6406C124.281 35.4649 123.773 35.2061 123.382 34.8642C123.314 34.6299 123.192 33.9854 123.016 32.9307C122.762 31.4463 122.567 30.377 122.43 29.7227H122.137C121.6 32.0664 120.809 34.0293 119.764 35.6114C119.227 35.8164 118.539 35.919 117.699 35.919C116.986 35.919 116.307 35.8409 115.663 35.6846C115.019 35.5381 114.535 35.3184 114.212 35.0254C114.085 34.127 113.832 32.9062 113.451 31.3633C113.07 29.8203 112.65 28.3506 112.191 26.9541C111.742 25.5576 111.347 24.5713 111.005 23.9951L110.038 23.8047ZM136.215 14.6055C136.215 13.7461 136.493 13.0478 137.05 12.5107C137.616 11.9736 138.514 11.7051 139.745 11.7051C140.975 11.7051 141.868 11.9736 142.425 12.5107C142.992 13.0478 143.275 13.7461 143.275 14.6055C143.275 15.0937 143.104 15.543 142.762 15.9531C142.43 16.3633 141.991 16.6904 141.444 16.9346C140.897 17.169 140.331 17.2861 139.745 17.2861C139.11 17.2861 138.519 17.1494 137.972 16.876C137.435 16.5928 137.005 16.2412 136.683 15.8213C136.371 15.4013 136.215 14.9961 136.215 14.6055ZM135.497 22.9843C135.37 22.5058 135.282 22.0713 135.233 21.6807C135.184 21.2803 135.16 20.8652 135.16 20.4355L135.175 20.0254C135.38 19.7617 135.697 19.498 136.127 19.2343C136.566 18.9609 137.074 18.7315 137.65 18.5459C138.236 18.3603 138.842 18.2676 139.467 18.2676C140.833 18.2676 141.805 18.5752 142.382 19.1904C142.958 19.8057 143.246 20.7627 143.246 22.0615C143.246 22.8428 143.133 23.8633 142.909 25.123C142.694 26.3828 142.43 27.6084 142.118 28.7998C141.815 29.9815 141.552 30.8262 141.327 31.334L141.356 31.3633L143.524 30.5723C143.915 30.9043 144.208 31.2705 144.403 31.6709C144.608 32.0713 144.74 32.5352 144.798 33.0625C144.798 33.1309 144.583 33.4141 144.154 33.9121C143.724 34.4004 143.153 34.8594 142.44 35.2891C141.737 35.709 140.922 35.919 139.993 35.919C139.056 35.919 138.295 35.6651 137.708 35.1572C137.132 34.6494 136.844 33.7803 136.844 32.5498C136.844 31.1142 136.883 29.5909 136.962 27.9795C137.04 26.3682 137.162 24.8057 137.328 23.292L135.497 22.9843ZM145.75 31.7442C145.75 31.0312 145.927 30.3623 146.278 29.7373C146.639 29.1123 147.196 28.585 147.948 28.1553C148.222 28.1553 148.543 28.2432 148.915 28.419C149.295 28.5947 149.745 28.8535 150.262 29.1953L152.972 24.0684L147.098 25.0205C146.708 24.5909 146.395 24.1562 146.161 23.7168C145.936 23.2676 145.824 22.7305 145.824 22.1055C145.824 21.7246 145.873 21.3242 145.97 20.9043C146.175 20.0645 146.542 19.4248 147.069 18.9853C147.597 18.5361 148.25 18.3115 149.032 18.3115C149.364 18.3115 149.686 18.3457 149.998 18.414C151.034 18.6192 151.991 18.8877 152.87 19.2197C153.758 19.542 154.442 19.8692 154.92 20.2012C155.125 19.8984 155.418 19.581 155.8 19.249C156.18 18.9072 156.605 18.6192 157.074 18.3848C157.552 18.1406 158.021 18.0088 158.48 17.9892C158.92 18.1553 159.3 18.4727 159.623 18.9414C159.955 19.4102 160.208 19.9619 160.384 20.5967C160.56 21.2315 160.648 21.876 160.648 22.5303C160.648 23.1455 160.565 23.7168 160.399 24.2442C160.243 24.3711 160.043 24.4687 159.798 24.5371C159.564 24.5957 159.31 24.625 159.036 24.625C158.841 24.625 158.656 24.6104 158.48 24.581C158.06 25.2354 157.298 26.1924 156.195 27.4522C155.101 28.7119 154.183 29.7178 153.441 30.4697L156.693 30.8359L158.158 27.4082L160.326 27.8184C160.453 28.1602 160.555 28.6094 160.633 29.166C160.721 29.7129 160.765 30.2891 160.765 30.8946C160.765 31.6367 160.692 32.335 160.545 32.9892C160.399 33.6338 160.17 34.1709 159.857 34.6006C159.203 35.4795 158.295 35.919 157.132 35.919C156.312 35.919 155.413 35.6748 154.437 35.1866C153.46 34.6885 152.557 34.1026 151.727 33.4287C151.415 33.9659 151.117 34.4004 150.833 34.7324C150.55 35.0645 150.208 35.3379 149.808 35.5527C149.408 35.7578 148.92 35.8799 148.343 35.919C147.904 35.792 147.484 35.5186 147.083 35.0986C146.683 34.669 146.361 34.1611 146.117 33.5752C145.873 32.9795 145.75 32.3692 145.75 31.7442ZM162.64 27.1152C162.64 25.4258 162.923 23.917 163.49 22.5888C164.056 21.2607 164.93 20.2109 166.112 19.4395C167.303 18.6582 168.788 18.2676 170.565 18.2676C171.493 18.2676 172.42 18.3798 173.348 18.6045C174.276 18.8193 175.062 19.1807 175.706 19.6885C176.302 20.167 176.732 20.8017 176.996 21.5928C177.269 22.374 177.406 23.2432 177.406 24.2002C177.406 24.835 177.352 25.4844 177.245 26.1484C177.128 26.3437 176.898 26.6025 176.556 26.9248C176.215 27.2373 175.814 27.5449 175.355 27.8477C174.896 28.1504 174.451 28.3848 174.022 28.5508C173.612 28.5801 173.187 28.5947 172.748 28.5947C171.976 28.5947 171.195 28.5605 170.404 28.4922C169.613 28.4239 168.92 28.3457 168.324 28.2578C168.402 29.0879 168.656 29.8105 169.085 30.4258C169.515 31.0411 170.199 31.3486 171.136 31.3486C171.224 31.3486 171.366 31.3389 171.561 31.3194C172.156 31.2607 172.85 31.1045 173.641 30.8506C174.442 30.5869 175.238 30.2842 176.029 29.9424C176.4 30.3135 176.673 30.6846 176.849 31.0557C177.025 31.4267 177.147 31.959 177.215 32.6524C176.913 33.0039 176.42 33.4336 175.736 33.9414C175.062 34.4492 174.237 34.9082 173.26 35.3184C172.284 35.7187 171.263 35.919 170.199 35.919C168.597 35.919 167.225 35.5332 166.083 34.7617C164.95 33.9805 164.09 32.9258 163.505 31.5977C162.928 30.2598 162.64 28.7656 162.64 27.1152ZM172.074 23.7461C171.937 23.5996 171.708 23.4873 171.385 23.4092C171.063 23.3213 170.726 23.2773 170.375 23.2773C170.091 23.2773 169.803 23.3017 169.51 23.3506C169.227 23.3994 169.056 23.4531 168.998 23.5117C168.665 24.166 168.456 24.9082 168.368 25.7383L172.279 25.3574L172.074 23.7461Z" fill="white"/>
<mask id="mask0_748_2" style="mask-type:luminance" maskUnits="userSpaceOnUse" x="177" y="16" width="16" height="22">
<path d="M192.5 16.875H177.5V37.5444H192.5V16.875Z" fill="white"/>
</mask>
<g mask="url(#mask0_748_2)">
<path d="M192.5 27.2097H183.526L182.053 21.8751L180.925 17.7961C180.891 17.675 180.89 17.5472 180.92 17.4252C180.95 17.3033 181.012 17.1913 181.099 17.1003C181.185 17.0093 181.294 16.9423 181.415 16.906C181.535 16.8696 181.663 16.8652 181.785 16.893H181.788C181.789 16.8929 181.791 16.8934 181.791 16.8934C181.792 16.8938 181.794 16.8954 181.794 16.8954C181.796 16.8954 181.799 16.8975 181.803 16.8975C181.806 16.8982 181.81 16.8998 181.812 16.902C181.84 16.9093 181.868 16.9184 181.895 16.9291C181.944 16.9495 181.99 16.9756 182.032 17.0071C182.066 17.0286 182.098 17.0542 182.126 17.0833L191.201 25.9423C191.201 25.9441 191.203 25.9456 191.205 25.9468C191.206 25.9479 191.208 25.9486 191.21 25.9489L191.216 25.9558L192.5 27.2097Z" fill="url(#paint2_linear_748_2)"/>
<path d="M183.526 27.2105L183.198 26.8488L183.034 26.6691L177.623 20.7169C177.557 20.6442 177.515 20.5526 177.504 20.4549C177.493 20.3573 177.512 20.2586 177.56 20.1726C177.607 20.0866 177.68 20.0176 177.769 19.9754C177.858 19.9331 177.958 19.9197 178.055 19.9371L178.807 20.3032C178.809 20.3032 178.814 20.3053 178.816 20.3053L180.514 21.1298L181.859 21.7833L182.052 21.8755L183.526 27.2105Z" fill="white"/>
<g style="mix-blend-mode:screen" opacity="0.3">
<path d="M188.227 26.5363H184.04L182.005 19.1777L188.227 26.5363Z" fill="white"/>
</g>
<g style="mix-blend-mode:multiply" opacity="0.15">
<path d="M183.526 27.2092L183.014 26.176L180.514 21.1289L181.859 21.7826L182.052 21.8747L183.526 27.2092Z" fill="white"/>
</g>
<g style="mix-blend-mode:screen" opacity="0.5">
<path d="M191.201 25.9421C191.098 25.859 190.494 25.3648 189.663 24.6191C189.202 24.2097 188.672 23.7274 188.113 23.2018C187.834 22.939 187.542 22.6694 187.252 22.3886C186.962 22.1079 186.668 21.8248 186.372 21.5417C186.082 21.2544 185.79 20.9668 185.503 20.6815C185.215 20.4008 184.941 20.1162 184.67 19.8415C184.132 19.2956 183.636 18.7768 183.216 18.3275C182.796 17.8781 182.452 17.4987 182.214 17.2314C182.132 17.1217 182.031 17.0267 181.918 16.9507C181.878 16.9278 181.837 16.909 181.794 16.8945C181.92 16.9263 182.035 16.9915 182.126 17.083L191.201 25.9421Z" fill="white"/>
</g>
<g style="mix-blend-mode:multiply" opacity="0.25">
<path d="M192.499 27.2106H183.525L183.197 26.8489L183.014 26.1773L182.667 24.9128C182.461 24.1266 182.252 23.3405 182.052 22.5497C181.987 22.2936 181.922 22.0399 181.859 21.7837L182.052 21.8759L180.925 17.7969C181.192 18.5674 181.43 19.3444 181.684 20.1194C181.926 20.8965 182.164 21.6752 182.398 22.4554C182.632 23.2352 182.856 24.0166 183.083 24.7982L183.696 26.9881C184.386 26.9926 185.078 26.9904 185.769 27.0016C186.517 27.0106 187.265 27.0197 188.014 27.0406C188.759 27.054 189.507 27.0796 190.255 27.1057C191.003 27.1386 191.751 27.1611 192.499 27.2106Z" fill="white"/>
</g>
<g style="mix-blend-mode:multiply" opacity="0.25">
<path d="M183.034 26.6691L177.623 20.7169C177.557 20.6442 177.515 20.5526 177.504 20.4549C177.493 20.3573 177.512 20.2586 177.56 20.1726C177.607 20.0866 177.68 20.0176 177.769 19.9754C177.858 19.9331 177.958 19.9197 178.055 19.9371L178.807 20.3032C178.547 20.211 178.29 20.1144 178.037 20.0156C177.961 20.0082 177.885 20.0242 177.819 20.0617C177.753 20.0991 177.701 20.1559 177.668 20.2244C177.637 20.2861 177.626 20.3563 177.637 20.4246C177.648 20.493 177.682 20.5559 177.731 20.6042L178.131 21.0107C178.266 21.1471 178.4 21.2848 178.533 21.424C178.798 21.7002 179.065 21.9765 179.323 22.2623C179.584 22.5432 179.847 22.824 180.101 23.1113C180.355 23.3987 180.613 23.682 180.862 23.974C181.112 24.266 181.363 24.5557 181.608 24.8513C182.1 25.445 182.583 26.0425 183.034 26.6691Z" fill="white"/>
</g>
<path d="M192.5 27.2095L191.217 28.4629L191.21 28.4695C191.209 28.4699 191.207 28.4707 191.205 28.4719C191.204 28.473 191.202 28.4746 191.202 28.4764L182.127 37.3352C182.099 37.3645 182.067 37.39 182.033 37.4116C181.99 37.443 181.945 37.4693 181.896 37.4896C181.869 37.5003 181.841 37.5093 181.813 37.5167C181.81 37.519 181.807 37.5206 181.804 37.5211C181.8 37.5211 181.797 37.5233 181.795 37.5233C181.795 37.5233 181.793 37.5249 181.792 37.5253C181.792 37.5253 181.79 37.5258 181.789 37.5256H181.786C181.664 37.5535 181.536 37.5491 181.416 37.5128C181.295 37.4763 181.186 37.4095 181.1 37.3184C181.013 37.2274 180.951 37.1155 180.921 36.9934C180.89 36.8716 180.892 36.7437 180.926 36.6226L182.054 32.5435L183.527 27.209L192.5 27.2095Z" fill="url(#paint3_linear_748_2)"/>
<path d="M183.526 27.209L182.053 32.5436L181.86 32.6358L180.514 33.2893L178.816 34.1138C178.814 34.1138 178.81 34.1159 178.807 34.1159L178.055 34.482C177.958 34.4993 177.858 34.486 177.77 34.4437C177.681 34.4015 177.607 34.3325 177.56 34.2465C177.512 34.1605 177.493 34.0618 177.504 33.9641C177.516 33.8665 177.557 33.7749 177.623 33.7022L183.035 27.75L183.198 27.5702L183.526 27.209Z" fill="url(#paint4_linear_748_2)"/>
<g style="mix-blend-mode:screen" opacity="0.3">
<path d="M188.227 27.8828H184.04L182.005 35.2412L188.227 27.8828Z" fill="white"/>
</g>
<g style="mix-blend-mode:multiply" opacity="0.15">
<path d="M183.526 27.209L183.014 28.2422L180.514 33.2893L181.859 32.6356L182.052 32.5436L183.526 27.209Z" fill="white"/>
</g>
<g style="mix-blend-mode:screen" opacity="0.5">
<path d="M191.201 28.4766C191.098 28.5596 190.494 29.0538 189.663 29.7995C189.202 30.2089 188.672 30.6913 188.113 31.2169C187.834 31.4797 187.542 31.7493 187.252 32.03C186.962 32.3108 186.668 32.5938 186.372 32.8768C186.082 33.1643 185.79 33.4519 185.503 33.7371C185.215 34.0178 184.941 34.3024 184.67 34.5771C184.132 35.123 183.636 35.6418 183.216 36.091C182.796 36.5401 182.452 36.92 182.214 37.1872C182.132 37.297 182.031 37.392 181.918 37.468C181.878 37.4908 181.837 37.5095 181.794 37.5241C181.92 37.4921 182.035 37.427 182.126 37.3354L191.201 28.4766Z" fill="white"/>
</g>
<g style="mix-blend-mode:multiply" opacity="0.25">
<path d="M183.526 27.209L182.052 32.5436L181.859 32.6358C181.922 32.3796 181.987 32.1258 182.052 31.8698C182.252 31.079 182.462 30.293 182.667 29.5067L183.014 28.2422L183.198 27.5706L183.526 27.209Z" fill="white"/>
</g>
<g style="mix-blend-mode:multiply" opacity="0.25">
<path d="M183.034 27.752L177.623 33.7042C177.557 33.7769 177.515 33.8685 177.504 33.9661C177.493 34.0638 177.512 34.1625 177.56 34.2485C177.607 34.3345 177.68 34.4035 177.769 34.4458C177.858 34.4879 177.958 34.5013 178.055 34.484L178.807 34.1179C178.547 34.2101 178.29 34.3066 178.037 34.4054C177.961 34.4129 177.885 34.3968 177.819 34.3594C177.753 34.3219 177.7 34.2651 177.668 34.1964C177.637 34.1348 177.626 34.0646 177.637 33.9963C177.648 33.928 177.682 33.8651 177.731 33.8169L178.131 33.4104C178.266 33.2739 178.4 33.1363 178.533 32.9971C178.798 32.7208 179.065 32.4446 179.323 32.1588C179.584 31.878 179.847 31.5973 180.101 31.3098C180.355 31.0222 180.613 30.7393 180.862 30.4473C181.112 30.1552 181.363 29.8655 181.608 29.569C182.1 28.9761 182.583 28.3786 183.034 27.752Z" fill="white"/>
</g>
<g style="mix-blend-mode:screen" opacity="0.5">
<path d="M192.499 27.2097C191.751 27.259 191.003 27.2817 190.255 27.3152C189.507 27.3423 188.759 27.3669 188.013 27.3805C187.265 27.4 186.517 27.4095 185.769 27.4195C185.077 27.4308 184.385 27.4285 183.696 27.433L183.083 29.6214C182.856 30.4029 182.632 31.1847 182.398 31.9642C182.165 32.7436 181.926 33.5229 181.684 34.3001C181.43 35.0751 181.192 35.8522 180.925 36.6226L182.052 32.5435L183.525 27.209L192.499 27.2097Z" fill="white"/>
</g>
</g>
<path d="M28.2034 27.8735C28.1414 27.8736 28.0814 27.8509 28.0348 27.81L26.4723 26.4428C26.4448 26.4187 26.4228 26.3891 26.4076 26.3558C26.3926 26.3226 26.3848 26.2864 26.3848 26.2499C26.3848 26.2134 26.3926 26.1773 26.4076 26.1441C26.4228 26.1108 26.4448 26.0811 26.4723 26.0571L28.0348 24.6899C28.0859 24.6451 28.1528 24.6225 28.2206 24.627C28.2884 24.6316 28.3517 24.6628 28.3965 24.714C28.4413 24.7652 28.4639 24.832 28.4594 24.8999C28.4548 24.9677 28.4236 25.031 28.3724 25.0758L27.0303 26.2499L28.3723 27.4241C28.4116 27.4585 28.4394 27.504 28.4521 27.5546C28.4649 27.6052 28.4619 27.6584 28.4435 27.7073C28.4252 27.7561 28.3923 27.7982 28.3494 27.8279C28.3066 27.8576 28.2556 27.8735 28.2034 27.8735ZM30.5472 27.8735C30.495 27.8735 30.4441 27.8576 30.4011 27.8279C30.3582 27.7982 30.3254 27.7562 30.307 27.7073C30.2886 27.6585 30.2856 27.6052 30.2984 27.5546C30.3111 27.504 30.3389 27.4585 30.3783 27.4241L31.7204 26.2499L30.3784 25.0758C30.3272 25.031 30.2959 24.9677 30.2914 24.8999C30.2869 24.832 30.3095 24.7652 30.3543 24.714C30.399 24.6628 30.4623 24.6316 30.5301 24.627C30.598 24.6225 30.6648 24.6451 30.716 24.6899L32.2785 26.0571C32.306 26.0811 32.328 26.1108 32.3431 26.1441C32.3582 26.1773 32.366 26.2134 32.366 26.2499C32.366 26.2864 32.3582 26.3226 32.3431 26.3558C32.328 26.3891 32.306 26.4187 32.2785 26.4428L30.716 27.81C30.6694 27.851 30.6093 27.8736 30.5472 27.8735ZM28.7894 28.4594C28.7494 28.4594 28.7101 28.4501 28.6744 28.4322C28.6388 28.4142 28.6078 28.3882 28.5839 28.3562C28.56 28.3242 28.544 28.2871 28.537 28.2477C28.5301 28.2085 28.5324 28.1681 28.5438 28.1298L29.7156 24.2236C29.7245 24.1904 29.7399 24.1594 29.7609 24.1323C29.7819 24.1052 29.8082 24.0826 29.8381 24.0659C29.8681 24.0491 29.9011 24.0385 29.9352 24.0348C29.9693 24.031 30.0038 24.0341 30.0366 24.0439C30.0695 24.0537 30.1001 24.07 30.1265 24.0918C30.153 24.1137 30.1748 24.1406 30.1906 24.171C30.2065 24.2014 30.2161 24.2347 30.2189 24.2689C30.2216 24.3031 30.2175 24.3375 30.2068 24.3701L29.0349 28.2763C29.0191 28.3292 28.9867 28.3756 28.9424 28.4086C28.8983 28.4416 28.8446 28.4594 28.7894 28.4594Z" fill="white"/>
<path d="M184.68 27.1875C184.68 26.6697 184.26 26.25 183.742 26.25C183.224 26.25 182.805 26.6697 182.805 27.1875C182.805 27.7053 183.224 28.125 183.742 28.125C184.26 28.125 184.68 27.7053 184.68 27.1875Z" fill="white"/>
<defs>
<linearGradient id="paint0_linear_748_2" x1="19.0717" y1="0" x2="19.0717" y2="49.5526" gradientUnits="userSpaceOnUse">
<stop stop-color="white"/>
<stop offset="1" stop-color="#2312F7"/>
</linearGradient>
<linearGradient id="paint1_linear_748_2" x1="15.5395" y1="15.125" x2="15.5395" y2="39.1875" gradientUnits="userSpaceOnUse">
<stop stop-color="white"/>
<stop offset="1" stop-color="#2312F7"/>
</linearGradient>
<linearGradient id="paint2_linear_748_2" x1="186.699" y1="16.751" x2="186.699" y2="27.4268" gradientUnits="userSpaceOnUse">
<stop stop-color="#2892BA"/>
<stop offset="1" stop-color="white"/>
</linearGradient>
<linearGradient id="paint3_linear_748_2" x1="186.699" y1="27.0849" x2="186.699" y2="37.7608" gradientUnits="userSpaceOnUse">
<stop stop-color="#2892BA"/>
<stop offset="1" stop-color="white"/>
</linearGradient>
<linearGradient id="paint4_linear_748_2" x1="177.501" y1="30.8492" x2="183.526" y2="30.8492" gradientUnits="userSpaceOnUse">
<stop stop-color="white"/>
<stop offset="0.238" stop-color="white"/>
<stop offset="0.44" stop-color="white"/>
<stop offset="0.629" stop-color="white"/>
<stop offset="0.81" stop-color="white"/>
<stop offset="0.983" stop-color="#009BBC"/>
<stop offset="0.9831" stop-color="white"/>
</linearGradient>
</defs>
</svg>
