<svg width="16" height="13" viewBox="0 0 16 13" fill="none" xmlns="http://www.w3.org/2000/svg">
<path d="M16 3.70284V10.1819C16 10.7847 15.7366 11.3628 15.2678 11.789C14.7989 12.2152 14.163 12.4547 13.5 12.4547H2.5C1.83696 12.4547 1.20107 12.2152 0.732233 11.789C0.263392 11.3628 0 10.7847 0 10.1819V3.70284L7.746 7.84647C7.82295 7.88773 7.91066 7.90949 8 7.90949C8.08934 7.90949 8.17705 7.88773 8.254 7.84647L16 3.70284ZM13.5 0.636475C14.1151 0.636387 14.7087 0.842481 15.1672 1.21533C15.6257 1.58818 15.9168 2.1016 15.985 2.65738L8 6.92738L0.0150001 2.65738C0.0831583 2.1016 0.374324 1.58818 0.832795 1.21533C1.29127 0.842481 1.88485 0.636387 2.5 0.636475H13.5Z" fill="#737373"/>
</svg>
