<svg width="26" height="24" viewBox="0 0 26 24" fill="none" xmlns="http://www.w3.org/2000/svg">
<path d="M8.3681 5.7239L13.0001 10.3559L17.6081 5.7479C17.7099 5.63956 17.8325 5.5529 17.9686 5.4931C18.1047 5.4333 18.2515 5.4016 18.4001 5.3999C18.7184 5.3999 19.0236 5.52633 19.2486 5.75137C19.4737 5.97642 19.6001 6.28164 19.6001 6.5999C19.6029 6.74702 19.5756 6.89317 19.5199 7.02936C19.4642 7.16555 19.3812 7.28892 19.2761 7.3919L14.6081 11.9999L19.2761 16.6679C19.4739 16.8614 19.5898 17.1234 19.6001 17.3999C19.6001 17.7182 19.4737 18.0234 19.2486 18.2484C19.0236 18.4735 18.7184 18.5999 18.4001 18.5999C18.2472 18.6062 18.0946 18.5807 17.952 18.5249C17.8095 18.4692 17.6801 18.3844 17.5721 18.2759L13.0001 13.6439L8.3801 18.2639C8.2787 18.3686 8.15757 18.4522 8.0237 18.5099C7.88983 18.5676 7.74585 18.5982 7.6001 18.5999C7.28184 18.5999 6.97661 18.4735 6.75157 18.2484C6.52653 18.0234 6.4001 17.7182 6.4001 17.3999C6.3973 17.2528 6.4246 17.1066 6.48031 16.9704C6.53603 16.8343 6.61899 16.7109 6.7241 16.6079L11.3921 11.9999L6.7241 7.3319C6.52632 7.13841 6.41035 6.8764 6.4001 6.5999C6.4001 6.28164 6.52653 5.97642 6.75157 5.75137C6.97661 5.52633 7.28184 5.3999 7.6001 5.3999C7.8881 5.4035 8.1641 5.5199 8.3681 5.7239Z" fill="url(#paint0_linear_904_34)"/>
<defs>
<linearGradient id="paint0_linear_904_34" x1="13.0001" y1="5.3999" x2="13.0001" y2="18.6009" gradientUnits="userSpaceOnUse">
<stop stop-color="#00FF0A"/>
<stop offset="1" stop-color="#0500FF"/>
</linearGradient>
</defs>
</svg>
