<svg width="24" height="24" viewBox="0 0 24 24" fill="none" xmlns="http://www.w3.org/2000/svg">
<path d="M3.00008 8.60906C3.00008 7.57144 3.18147 6.59117 3.5389 5.67625C3.8804 4.7876 4.38777 3.972 5.03398 3.27291C5.67888 2.583 6.41686 1.98642 7.22659 1.50042C8.05738 0.997818 8.9568 0.61864 9.89667 0.374776C10.8479 0.125002 11.8273 -0.000962103 12.8108 5.5326e-06C14.3299 5.5326e-06 15.7436 0.321428 17.0547 0.961606C18.3486 1.59011 19.4499 2.55464 20.2435 3.75438C21.0624 4.97472 21.4692 6.3551 21.4692 7.8942C21.4692 8.81712 21.3785 9.72004 21.1931 10.6029C21.0111 11.4854 20.7218 12.3422 20.3316 13.1543C19.9596 13.9405 19.4733 14.6672 18.8885 15.3109C18.3007 15.9444 17.5889 16.4501 16.7972 16.7967C15.9378 17.1733 15.0081 17.3629 14.0698 17.3528C13.4176 17.3528 12.7668 17.1994 12.124 16.8914C11.4811 16.5846 11.0196 16.1632 10.7422 15.623C10.6449 15.9978 10.5115 16.5393 10.3341 17.2475C10.1634 17.9543 10.0487 18.4104 9.99803 18.6172C9.94468 18.8226 9.84598 19.1653 9.70194 19.6401C9.60426 19.9913 9.47895 20.3343 9.32717 20.6657L8.86838 21.5647C8.66997 21.9504 8.44816 22.3236 8.2042 22.6823C7.9628 23.0317 7.66405 23.4492 7.30795 23.9293L7.10923 24L6.97719 23.856C6.83448 22.3449 6.76113 21.4406 6.76113 21.1419C6.76113 20.2576 6.86649 19.2654 7.07455 18.1637C7.27861 17.0634 7.60136 15.6804 8.03482 14.0172C8.46827 12.3554 8.71634 11.3778 8.78302 11.0884C8.4776 10.4656 8.3229 9.65202 8.3229 8.65174C8.3229 7.85285 8.5723 7.10464 9.07244 6.40045C9.57391 5.69892 10.2074 5.34816 10.9756 5.34816C11.5638 5.34816 12.0199 5.54288 12.3467 5.93365C12.6748 6.32309 12.8348 6.8139 12.8348 7.41273C12.8348 8.04757 12.6241 8.96649 12.2 10.1682C11.7759 11.3712 11.5651 12.2687 11.5651 12.8649C11.5651 13.4691 11.7812 13.9746 12.2133 14.3707C12.6398 14.767 13.2037 14.9817 13.7857 14.9695C14.3139 14.9695 14.8034 14.8495 15.2582 14.6081C15.7058 14.3737 16.0933 14.0392 16.3905 13.6305C17.0376 12.7426 17.4989 11.7333 17.7468 10.663C17.8749 10.1001 17.9736 9.56533 18.0349 9.06252C18.1003 8.55705 18.1283 8.07958 18.1283 7.62612C18.1283 5.96299 17.6001 4.66663 16.5505 3.73838C15.4956 2.81012 14.1218 2.34866 12.432 2.34866C10.5102 2.34866 8.90306 2.97016 7.61603 4.21718C6.32768 5.46019 5.6795 7.04063 5.6795 8.95716C5.6795 9.37994 5.74351 9.78806 5.86488 10.1828C5.98358 10.5763 6.11295 10.8897 6.25299 11.1218C6.39169 11.3498 6.5224 11.5726 6.6411 11.7779C6.76113 11.9833 6.82381 12.13 6.82381 12.2181C6.82381 12.4875 6.75313 12.8382 6.61042 13.2717C6.46238 13.7051 6.28766 13.9212 6.07694 13.9212C6.05693 13.9212 5.97424 13.9065 5.8302 13.8759C5.33135 13.7269 4.88084 13.4485 4.52451 13.069C4.14632 12.6756 3.84786 12.2127 3.6456 11.7059C3.44391 11.2009 3.28682 10.6792 3.17613 10.1468C3.05654 9.64305 2.99744 9.12682 3.00008 8.60906V8.60906Z" fill="white"/>
</svg>
