<svg width="24" height="24" viewBox="0 0 24 24" fill="none" xmlns="http://www.w3.org/2000/svg">
<path d="M1 1.47282V22.5261C1.00014 22.5718 1.01376 22.6164 1.03916 22.6544C1.06456 22.6923 1.1006 22.722 1.14276 22.7395C1.18493 22.7571 1.23134 22.7618 1.27618 22.7531C1.32102 22.7444 1.36229 22.7226 1.39482 22.6906L12.357 12L1.39482 1.30836C1.36229 1.27629 1.32102 1.25454 1.27618 1.24583C1.23134 1.23712 1.18493 1.24184 1.14276 1.25941C1.1006 1.27697 1.06456 1.30659 1.03916 1.34456C1.01376 1.38252 1.00014 1.42714 1 1.47282ZM16.9534 7.6072L3.20818 0.034445L3.19961 0.0296236C2.96283 -0.0989461 2.73783 0.221407 2.93176 0.407833L13.7064 10.7106L16.9534 7.6072ZM2.93283 23.5922C2.73783 23.7786 2.96283 24.0989 3.20068 23.9704L3.20926 23.9656L16.9534 16.3928L13.7064 13.2884L2.93283 23.5922ZM22.5022 10.6607L18.6639 8.54683L15.0548 12L18.6639 15.4516L22.5022 13.3393C23.5463 12.7623 23.5463 11.2377 22.5022 10.6607Z" fill="white"/>
</svg>
