<svg width="17" height="16" viewBox="0 0 17 16" fill="none" xmlns="http://www.w3.org/2000/svg">
<path d="M1.1501 1.7249C1.1501 1.30719 1.31603 0.906579 1.6114 0.611209C1.90677 0.315839 2.30738 0.149902 2.7251 0.149902H14.2751C14.6928 0.149902 15.0934 0.315839 15.3888 0.611209C15.6842 0.906579 15.8501 1.30719 15.8501 1.7249V9.0749C15.8501 9.49262 15.6842 9.89323 15.3888 10.1886C15.0934 10.484 14.6928 10.6499 14.2751 10.6499H8.5001V5.3999C8.5001 4.84295 8.27885 4.3088 7.88502 3.91498C7.4912 3.52115 6.95705 3.2999 6.4001 3.2999H1.1501V1.7249ZM8.5001 12.7499H16.3751C16.5143 12.7499 16.6479 12.6946 16.7463 12.5961C16.8448 12.4977 16.9001 12.3641 16.9001 12.2249C16.9001 12.0857 16.8448 11.9521 16.7463 11.8537C16.6479 11.7552 16.5143 11.6999 16.3751 11.6999H8.5001V12.7499ZM0.100098 5.9249C0.100098 5.50719 0.266035 5.10658 0.561405 4.81121C0.856774 4.51584 1.25738 4.3499 1.6751 4.3499H5.8751C6.29281 4.3499 6.69342 4.51584 6.98879 4.81121C7.28416 5.10658 7.4501 5.50719 7.4501 5.9249V14.3249C7.4501 14.7426 7.28416 15.1432 6.98879 15.4386C6.69342 15.734 6.29281 15.8999 5.8751 15.8999H1.6751C1.25738 15.8999 0.856774 15.734 0.561405 15.4386C0.266035 15.1432 0.100098 14.7426 0.100098 14.3249V5.9249ZM3.2501 12.7499C3.11086 12.7499 2.97732 12.8052 2.87887 12.9037C2.78041 13.0021 2.7251 13.1357 2.7251 13.2749C2.7251 13.4141 2.78041 13.5477 2.87887 13.6461C2.97732 13.7446 3.11086 13.7999 3.2501 13.7999H4.3001C4.43934 13.7999 4.57287 13.7446 4.67133 13.6461C4.76979 13.5477 4.8251 13.4141 4.8251 13.2749C4.8251 13.1357 4.76979 13.0021 4.67133 12.9037C4.57287 12.8052 4.43934 12.7499 4.3001 12.7499H3.2501Z" fill="white"/>
</svg>
