<svg width="11" height="13" viewBox="0 0 11 13" fill="none" xmlns="http://www.w3.org/2000/svg">
<path d="M0.938425 12.05C0.82453 12.052 0.710636 12.0326 0.603441 11.9924L5.99936 6.59449L7.78549 8.38264L1.58494 11.8665C1.38855 11.9816 1.16604 12.0448 0.938425 12.05ZM0.158582 11.6045C0.0488941 11.4059 -0.00569445 11.1815 0.000469836 10.9546V1.10277C-0.000435655 0.953218 0.0221725 0.804456 0.0674665 0.661928L5.58331 6.17911L0.156572 11.6059L0.158582 11.6045ZM8.31812 8.08182L6.41474 6.17978L8.51375 4.08144L10.3783 5.1286C10.736 5.28939 10.9759 5.63443 11 6.02569C10.9881 6.2179 10.9238 6.40318 10.8141 6.56144C10.7044 6.7197 10.5534 6.8449 10.3776 6.92345L8.31812 8.08182ZM5.99936 5.76172L0.41183 0.174862C0.565253 0.0609672 0.750834 0.000669968 0.941775 0C1.16688 0.00803961 1.38663 0.0716865 1.58159 0.185581L7.98046 3.78197L5.99936 5.76172Z" fill="white"/>
</svg>
