<svg width="14" height="14" viewBox="0 0 14 14" fill="none" xmlns="http://www.w3.org/2000/svg">
<path d="M7.30942 0.567383C4.66406 0.567383 2.05005 2.33082 2.05005 5.18491C2.05005 6.99991 3.07099 8.03116 3.68974 8.03116C3.94507 8.03116 4.09192 7.3196 4.09192 7.11871C4.09192 6.87905 3.48101 6.36837 3.48101 5.37053C3.48101 3.29772 5.05882 1.82798 7.1007 1.82798C8.8563 1.82798 10.1557 2.82582 10.1557 4.65897C10.1557 6.02806 9.60664 8.59587 7.82752 8.59587C7.18567 8.59587 6.63622 8.13181 6.63622 7.46686C6.63622 6.49212 7.31685 5.54873 7.31685 4.54306C7.31685 2.83654 4.89589 3.14592 4.89589 5.20842C4.89589 5.64154 4.94992 6.12087 5.14339 6.51563C4.7874 8.04725 4.06057 10.3288 4.06057 11.9066C4.06057 12.3938 4.13029 12.8735 4.17649 13.3607C4.26394 13.4588 4.22021 13.4485 4.35427 13.3994C5.65365 11.6203 5.60745 11.2726 6.19526 8.94443C6.51247 9.54792 7.33211 9.87256 7.9818 9.87256C10.7196 9.87256 11.9496 7.20409 11.9496 4.79881C11.9496 2.23883 9.7374 0.568208 7.30901 0.568208L7.30942 0.567383Z" fill="white"/>
</svg>
