<svg width="14" height="14" viewBox="0 0 14 14" fill="none" xmlns="http://www.w3.org/2000/svg">
<g id="bxl:instagram-alt">
<path id="Vector" d="M11.9208 4.96775C11.9153 4.55119 11.8373 4.13878 11.6904 3.74895C11.563 3.42013 11.3684 3.12151 11.119 2.87216C10.8697 2.62281 10.5711 2.42821 10.2422 2.3008C9.85743 2.15635 9.45089 2.07824 9.03994 2.0698C8.51084 2.04615 8.34309 2.03955 6.99999 2.03955C5.65689 2.03955 5.48474 2.03955 4.95949 2.0698C4.54873 2.0783 4.14238 2.15641 3.75774 2.3008C3.42887 2.42812 3.1302 2.62269 2.88084 2.87205C2.63147 3.12141 2.43691 3.42008 2.30959 3.74895C2.16485 4.13347 2.08691 4.53991 2.07914 4.9507C2.05549 5.48035 2.04834 5.6481 2.04834 6.9912C2.04834 8.3343 2.04834 8.5059 2.07914 9.0317C2.08739 9.4431 2.16494 9.849 2.30959 10.2346C2.43712 10.5633 2.63183 10.8619 2.88128 11.1111C3.13073 11.3604 3.42942 11.5549 3.75829 11.6822C4.14188 11.8324 4.54829 11.9161 4.96004 11.9296C5.48969 11.9533 5.65744 11.9604 7.00054 11.9604C8.34364 11.9604 8.51579 11.9604 9.04104 11.9296C9.45197 11.9216 9.85854 11.8436 10.2433 11.6992C10.5721 11.5716 10.8706 11.377 11.12 11.1277C11.3693 10.8783 11.5639 10.5798 11.6915 10.251C11.8361 9.86605 11.9137 9.46015 11.9219 9.0482C11.9456 8.5191 11.9527 8.35135 11.9527 7.0077C11.9516 5.6646 11.9516 5.4941 11.9208 4.96775ZM6.99669 9.5311C5.59199 9.5311 4.45404 8.39315 4.45404 6.98845C4.45404 5.58375 5.59199 4.4458 6.99669 4.4458C7.67104 4.4458 8.31778 4.71369 8.79462 5.19053C9.27145 5.66737 9.53934 6.3141 9.53934 6.98845C9.53934 7.6628 9.27145 8.30954 8.79462 8.78638C8.31778 9.26321 7.67104 9.5311 6.99669 9.5311ZM9.64054 4.94465C9.56266 4.94472 9.48553 4.92944 9.41356 4.89967C9.34159 4.8699 9.27621 4.82623 9.22114 4.77116C9.16607 4.71609 9.12239 4.6507 9.09262 4.57873C9.06285 4.50676 9.04757 4.42963 9.04764 4.35175C9.04764 4.27393 9.06297 4.19686 9.09275 4.12496C9.12253 4.05306 9.16619 3.98773 9.22122 3.9327C9.27625 3.87767 9.34158 3.83402 9.41348 3.80424C9.48538 3.77445 9.56244 3.75913 9.64027 3.75913C9.71809 3.75913 9.79515 3.77445 9.86705 3.80424C9.93895 3.83402 10.0043 3.87767 10.0593 3.9327C10.1143 3.98773 10.158 4.05306 10.1878 4.12496C10.2176 4.19686 10.2329 4.27393 10.2329 4.35175C10.2329 4.67955 9.96779 4.94465 9.64054 4.94465Z" fill="white"/>
<path id="Vector_2" d="M6.99674 8.63997C7.90892 8.63997 8.64839 7.9005 8.64839 6.98832C8.64839 6.07614 7.90892 5.33667 6.99674 5.33667C6.08456 5.33667 5.34509 6.07614 5.34509 6.98832C5.34509 7.9005 6.08456 8.63997 6.99674 8.63997Z" fill="white"/>
</g>
</svg>
